<svg version="1.1" id="Layer_1" xmlns="http://www.w3.org/2000/svg" xmlns:xlink="http://www.w3.org/1999/xlink" x="0px" y="0px"
	 width="100%" viewBox="0 0 432 512" enable-background="new 0 0 432 512" xml:space="preserve">
<path fill="#000000" opacity="1.000000" stroke="none" 
	d="
M1.000001,309.000000 
	C1.000000,230.312439 1.000000,151.624878 1.350949,72.372162 
	C3.364314,65.682915 7.927020,62.700542 13.578543,61.011189 
	C32.914650,55.231239 52.281147,49.552650 71.607933,43.741875 
	C103.362297,34.194641 135.104431,24.606451 166.832016,14.970610 
	C181.911438,10.390908 196.945435,5.661559 212.000000,0.999999 
	C215.030594,1.000000 218.061188,1.000000 221.671539,1.376603 
	C223.238266,1.846854 224.274918,1.776411 225.205002,2.057978 
	C253.708237,10.686739 282.187561,19.394690 310.699005,27.996136 
	C342.894653,37.709038 375.155762,47.206955 407.305634,57.068302 
	C416.925812,60.019112 428.231171,60.517548 433.000000,72.000000 
	C433.000000,150.687561 433.000000,229.375122 432.605103,308.679932 
	C430.916870,315.947357 430.087189,322.728638 428.249573,329.224823 
	C420.451416,356.792755 404.523254,379.619537 385.168182,400.106323 
	C375.096375,410.766968 364.214935,420.748779 353.027252,430.245636 
	C341.166962,440.313538 328.872192,449.960785 316.126129,458.875092 
	C288.952362,477.879761 260.003571,493.955475 230.431335,508.909576 
	C227.644150,510.319031 224.811539,511.638702 222.000000,513.000000 
	C218.969406,513.000000 215.938812,513.000000 212.349396,512.641296 
	C209.430237,511.281158 206.962906,510.474792 204.726410,509.247711 
	C185.291122,498.584625 165.783844,488.045288 146.518143,477.082275 
	C118.976700,461.410004 93.619965,442.552490 70.150452,421.383698 
	C52.601089,405.554626 36.256893,388.376038 23.631447,368.116333 
	C15.451792,354.990662 8.447342,341.326080 4.973500,326.099731 
	C3.671900,320.394592 2.325813,314.699615 1.000001,309.000000 
M390.037384,341.584076 
	C397.608337,327.733582 402.132690,313.173920 402.091736,297.139435 
	C401.916840,228.643463 402.006561,160.146820 401.999756,91.650414 
	C401.999634,90.175331 401.999725,88.700249 401.999725,87.657173 
	C395.571655,85.680664 389.612793,83.792854 383.621155,82.015396 
	C351.948944,72.619576 320.250275,63.312267 288.597015,53.853111 
	C266.473694,47.241840 244.420074,40.397457 222.299973,33.775272 
	C220.024033,33.093910 217.299576,32.483208 215.133591,33.090111 
	C199.229446,37.546486 183.401947,42.279224 167.574203,47.004974 
	C135.307220,56.639057 103.056000,66.325981 70.796730,75.985962 
	C57.930511,79.838730 45.060196,83.677826 32.000305,87.580345 
	C32.000305,89.386414 32.000305,91.206985 32.000305,93.027565 
	C32.000305,161.691269 32.063725,230.355072 31.943478,299.018585 
	C31.921093,311.800903 35.423603,323.601990 40.554016,335.035645 
	C49.206947,354.319641 62.632126,370.252502 77.027992,385.349335 
	C83.832481,392.485138 91.333458,399.017334 98.942177,405.311279 
	C109.975693,414.438202 120.962074,423.726807 132.734283,431.834656 
	C158.593597,449.644806 185.667801,465.493256 213.821136,479.467041 
	C216.287048,480.690979 217.977921,480.667725 220.343582,479.326996 
	C237.686707,469.498077 255.321671,460.170319 272.487213,450.044800 
	C305.860870,430.358459 336.639679,407.354797 363.028259,378.676056 
	C373.345367,367.463531 382.189148,355.346161 390.037384,341.584076 
z"/>
<path fill="#FFFFFF" opacity="1.000000" stroke="none" 
	d="
M222.468658,513.000000 
	C224.811539,511.638702 227.644150,510.319031 230.431335,508.909576 
	C260.003571,493.955475 288.952362,477.879761 316.126129,458.875092 
	C328.872192,449.960785 341.166962,440.313538 353.027252,430.245636 
	C364.214935,420.748779 375.096375,410.766968 385.168182,400.106323 
	C404.523254,379.619537 420.451416,356.792755 428.249573,329.224823 
	C430.087189,322.728638 430.916870,315.947357 432.605103,309.148621 
	C433.000000,376.928253 433.000000,444.856537 433.000000,513.000000 
	C362.979248,513.000000 292.958282,513.000000 222.468658,513.000000 
z"/>
<path fill="#FFFFFF" opacity="1.000000" stroke="none" 
	d="
M1.000001,309.468658 
	C2.325813,314.699615 3.671900,320.394592 4.973500,326.099731 
	C8.447342,341.326080 15.451792,354.990662 23.631447,368.116333 
	C36.256893,388.376038 52.601089,405.554626 70.150452,421.383698 
	C93.619965,442.552490 118.976700,461.410004 146.518143,477.082275 
	C165.783844,488.045288 185.291122,498.584625 204.726410,509.247711 
	C206.962906,510.474792 209.430237,511.281158 211.895279,512.641296 
	C141.740875,513.000000 71.481743,513.000000 1.000000,513.000000 
	C1.000000,445.312592 1.000000,377.624969 1.000001,309.468658 
z"/>
<path fill="#FFFFFF" opacity="1.000000" stroke="none" 
	d="
M211.531342,0.999999 
	C196.945435,5.661559 181.911438,10.390908 166.832016,14.970610 
	C135.104431,24.606451 103.362297,34.194641 71.607933,43.741875 
	C52.281147,49.552650 32.914650,55.231239 13.578543,61.011189 
	C7.927020,62.700542 3.364314,65.682915 1.350949,71.903503 
	C1.000000,48.370094 1.000000,24.740189 1.000000,1.000000 
	C71.020859,1.000000 141.041763,1.000000 211.531342,0.999999 
z"/>
<path fill="#FFFFFF" opacity="1.000000" stroke="none" 
	d="
M433.000000,71.531342 
	C428.231171,60.517548 416.925812,60.019112 407.305634,57.068302 
	C375.155762,47.206955 342.894653,37.709038 310.699005,27.996136 
	C282.187561,19.394690 253.708237,10.686739 225.205002,2.057978 
	C224.274918,1.776411 223.238266,1.846854 222.125641,1.376603 
	C292.224060,1.000000 362.448151,1.000000 433.000000,1.000000 
	C433.000000,24.353205 433.000000,47.707943 433.000000,71.531342 
z"/>
<path fill="#FFFFFF" opacity="1.000000" stroke="none" 
	d="
M390.002808,341.964935 
	C382.189148,355.346161 373.345367,367.463531 363.028259,378.676056 
	C336.639679,407.354797 305.860870,430.358459 272.487213,450.044800 
	C255.321671,460.170319 237.686707,469.498077 220.343582,479.326996 
	C217.977921,480.667725 216.287048,480.690979 213.821136,479.467041 
	C185.667801,465.493256 158.593597,449.644806 132.734283,431.834656 
	C120.962074,423.726807 109.975693,414.438202 98.942177,405.311279 
	C91.333458,399.017334 83.832481,392.485138 77.027992,385.349335 
	C62.632126,370.252502 49.206947,354.319641 40.554016,335.035645 
	C35.423603,323.601990 31.921093,311.800903 31.943478,299.018585 
	C32.063725,230.355072 32.000305,161.691269 32.000305,93.027565 
	C32.000305,91.206985 32.000305,89.386414 32.000305,87.580345 
	C45.060196,83.677826 57.930511,79.838730 70.796730,75.985962 
	C103.056000,66.325981 135.307220,56.639057 167.574203,47.004974 
	C183.401947,42.279224 199.229446,37.546486 215.133591,33.090111 
	C217.299576,32.483208 220.024033,33.093910 222.299973,33.775272 
	C244.420074,40.397457 266.473694,47.241840 288.597015,53.853111 
	C320.250275,63.312267 351.948944,72.619576 383.621155,82.015396 
	C389.612793,83.792854 395.571655,85.680664 401.999725,87.657173 
	C401.999725,88.700249 401.999634,90.175331 401.999756,91.650414 
	C402.006561,160.146820 401.916840,228.643463 402.091736,297.139435 
	C402.132690,313.173920 397.608337,327.733582 390.002808,341.964935 
M383.637115,102.966957 
	C383.410614,102.062065 383.184082,101.157173 382.121460,100.071037 
	C380.390656,99.728775 378.668152,99.143013 376.927673,99.083466 
	C364.950653,98.673714 352.969849,98.373955 340.526886,97.314445 
	C335.205261,97.314445 329.883636,97.314445 325.904724,97.314445 
	C325.395844,94.676956 325.070038,92.988319 324.744232,91.299683 
	C323.292358,91.628563 321.840485,91.957436 320.388611,92.286316 
	C320.744263,93.842949 321.099915,95.399582 321.450104,96.932281 
	C320.230133,96.998451 318.096558,97.114174 315.323486,97.102379 
	C314.896332,97.158493 314.469147,97.214607 313.170532,97.131668 
	C310.449097,97.428085 307.727631,97.724503 304.068726,98.058167 
	C295.725342,98.121910 287.381989,98.185654 278.429840,98.049545 
	C277.944916,98.340042 277.460022,98.630539 276.111359,99.025955 
	C274.084930,99.083641 272.058533,99.141327 269.346527,99.013351 
	C268.556488,99.317795 267.766479,99.622231 266.243134,100.038132 
	C265.507935,100.102051 264.772705,100.165970 263.370911,100.086693 
	C262.665070,100.553314 261.959229,101.019943 260.425323,102.034004 
	C262.845520,102.775757 264.442322,103.265137 266.901154,103.881271 
	C268.935028,103.917191 270.968872,103.953110 273.390106,104.665558 
	C274.939453,104.697662 276.488800,104.729767 278.940002,104.896141 
	C282.285858,104.958145 285.631714,105.020157 289.354553,105.800781 
	C291.249939,105.781723 293.145294,105.762657 295.964325,105.876411 
	C314.297241,105.839142 332.630127,105.801872 351.786804,105.970322 
	C353.866241,105.673347 355.945709,105.376373 358.942078,104.967171 
	C362.948853,104.898193 366.955627,104.829216 371.567841,104.926125 
	C372.044830,104.616112 372.521851,104.306107 373.880646,103.955658 
	C376.909607,103.570747 379.938538,103.185829 383.637115,102.966957 
M254.430008,316.027496 
	C253.535919,314.564850 252.641830,313.102173 251.357880,311.001770 
	C253.677780,311.001770 255.141312,311.030884 256.603333,310.996399 
	C261.239685,310.887115 262.054749,309.745636 259.937500,305.752136 
	C257.674469,301.483643 255.078888,297.392822 252.696548,293.185852 
	C249.118301,286.867126 245.599350,280.514771 241.519241,273.218262 
	C245.709976,273.218262 248.745392,273.218262 252.870972,273.218262 
	C251.779953,270.143433 251.325180,267.773804 250.174072,265.812958 
	C246.018524,258.734222 241.583252,251.820526 237.338257,244.793365 
	C231.511307,235.147446 225.824173,225.416626 219.948929,215.800522 
	C217.476364,211.753647 215.314590,211.997482 212.986633,215.940750 
	C207.674332,224.939087 202.155807,233.815369 196.774597,242.773407 
	C191.070129,252.269562 185.427612,261.802917 178.993454,272.603485 
	C183.634598,272.832458 187.230362,273.009827 191.476532,273.219299 
	C186.135757,282.638214 180.977081,291.506287 176.071198,300.512024 
	C174.346588,303.677887 170.756012,306.359070 172.350937,310.740906 
	C175.308762,310.990173 178.003708,311.217255 181.150604,311.482422 
	C172.962326,325.809998 165.181046,339.425415 156.723480,354.224182 
	C162.327133,354.665894 166.598526,355.002594 171.518814,355.390442 
	C165.062653,366.509766 158.824036,377.157318 152.721008,387.882019 
	C151.911331,389.304871 151.231674,391.256805 151.583603,392.696930 
	C151.764191,393.436005 154.354614,393.936066 155.860092,393.946350 
	C168.185242,394.030579 180.513916,394.110840 192.835693,393.880524 
	C196.775742,393.806885 198.065369,395.388458 198.022141,399.002777 
	C197.944473,405.498230 198.116592,411.998138 197.959061,418.490692 
	C197.860550,422.550903 199.578461,424.120453 203.588043,424.043854 
	C211.580444,423.891113 219.577866,424.000610 227.573212,424.001587 
	C235.064011,424.002502 235.986588,423.083954 235.999069,415.531372 
	C236.010803,408.432678 236.001602,401.334015 236.001602,394.000580 
	C238.162109,394.000580 239.800766,394.001404 241.439423,394.000427 
	C253.598831,393.993195 265.758606,394.036713 277.917450,393.949860 
	C282.046082,393.920380 282.967529,392.290894 280.965057,388.816132 
	C278.389923,384.347809 275.633209,379.984161 273.054840,375.517670 
	C269.233978,368.898804 265.501099,362.229156 261.725403,355.571655 
	C266.346985,353.696594 271.691711,357.393219 275.104645,352.167572 
	C268.378326,340.340546 261.638397,328.489594 254.430008,316.027496 
M231.858627,156.507385 
	C234.663742,153.406143 237.592606,150.406250 240.239090,147.175049 
	C242.872711,143.959503 252.486099,144.062057 255.218552,147.191116 
	C262.744690,155.809677 265.202667,165.987076 265.092529,177.091385 
	C265.016022,184.806015 264.791504,192.539154 265.261780,200.225555 
	C265.383209,202.210480 268.008942,205.699646 269.243561,205.597198 
	C271.479980,205.411591 273.735565,203.252335 275.564911,201.484299 
	C276.266968,200.805756 275.890167,198.943085 275.892853,197.619751 
	C275.910461,188.957413 275.962952,180.294403 275.878021,171.632828 
	C275.767059,160.313889 271.912262,150.219650 264.771149,141.600845 
	C262.246490,138.553757 260.714050,135.989029 262.392303,132.130264 
	C279.124359,132.130264 295.893005,132.130264 313.105743,132.130264 
	C313.105743,134.720367 313.105743,137.122177 313.105743,139.643112 
	C319.613159,139.643112 325.671356,139.643112 331.628326,139.643112 
	C331.950104,136.888916 331.858704,132.502563 332.580078,132.364548 
	C336.290649,131.654648 334.931976,129.057755 334.864441,127.331192 
	C334.689178,122.850632 334.892853,118.737022 332.413971,114.066299 
	C329.106689,107.834656 330.431763,107.130943 323.150513,107.108543 
	C321.484741,107.103416 319.801788,107.254944 318.156677,107.069183 
	C314.338654,106.638069 312.399445,107.916161 313.024353,112.045319 
	C313.484131,115.083565 312.098938,116.220238 309.040131,116.068222 
	C305.041748,115.869507 301.024384,116.094933 297.018005,116.007187 
	C286.418030,115.775040 275.820679,115.337875 265.220093,115.253891 
	C259.794586,115.210915 254.365280,115.948433 248.936188,115.971107 
	C243.313873,115.994591 237.771622,116.591324 232.754700,112.224640 
	C224.956665,105.437271 210.108353,104.516884 200.566437,112.798958 
	C197.763000,115.232254 194.894409,116.755844 190.396454,115.564133 
	C185.951935,114.386574 180.908661,115.473129 176.127899,115.559555 
	C168.995667,115.688492 161.863571,115.889748 154.730972,115.910751 
	C149.514923,115.926117 144.298676,115.644318 139.081604,115.597427 
	C132.494263,115.538208 125.906006,115.583130 119.175186,115.583130 
	C118.989601,113.172905 118.970261,108.632050 118.588181,108.601311 
	C112.564064,108.116791 106.207100,107.172470 100.583542,108.720474 
	C98.526703,109.286667 98.128197,116.069031 97.073700,120.042313 
	C95.228043,126.996719 100.249825,132.799576 100.412811,139.659637 
	C106.472084,139.659637 112.535339,139.659637 119.047073,139.659637 
	C119.047073,137.006592 119.047073,134.603485 119.047073,132.132263 
	C136.939392,132.132263 154.382065,132.132263 171.793564,132.132263 
	C172.590164,137.076187 172.209702,136.850327 169.615707,141.219940 
	C166.086700,147.164612 162.321518,153.212479 160.240829,159.722137 
	C156.090149,172.707916 158.489441,186.307510 158.256119,199.644287 
	C158.198578,202.932938 160.158096,206.272842 164.247894,205.835953 
	C168.545425,205.376862 169.525192,201.563095 169.546341,198.093246 
	C169.594727,190.153824 168.581406,182.170822 169.127151,174.283569 
	C169.543793,168.261978 170.852554,161.996841 173.242203,156.480179 
	C178.333328,144.726974 179.680237,144.346817 192.580582,145.132309 
	C199.716141,158.594772 215.181259,166.071899 231.858627,156.507385 
M105.979706,370.001953 
	C101.130234,378.303619 96.280754,386.605316 91.075554,395.515961 
	C103.111885,398.470093 114.527359,396.022186 126.000946,397.310120 
	C126.000946,402.770782 126.152451,408.072479 125.946121,413.360199 
	C125.815048,416.719269 126.761543,418.219604 130.414322,418.068268 
	C136.393341,417.820557 142.400162,417.791473 148.375854,418.076660 
	C152.302124,418.264038 153.366699,416.627289 153.042496,413.076569 
	C152.831406,410.764679 152.746750,408.380280 153.069550,406.093903 
	C153.645386,402.015198 153.799561,398.465607 149.551910,395.877960 
	C147.021866,394.336700 146.329254,391.610901 148.018173,388.675293 
	C152.998016,380.019470 157.943695,371.343506 162.818802,362.628479 
	C163.523102,361.369446 163.766220,359.852386 164.285721,358.261963 
	C163.110260,358.117950 162.627518,358.005371 162.145538,358.008545 
	C159.190582,358.028076 156.499924,358.360779 154.811066,354.647705 
	C153.318130,351.365417 154.806000,349.558929 156.263535,347.163391 
	C159.527924,341.798218 162.523621,336.270142 165.664505,330.829041 
	C167.465424,327.709198 167.379929,324.832550 165.335495,321.741180 
	C162.699875,317.755859 160.419983,313.535278 158.010025,309.455170 
	C161.042923,308.965088 163.581284,308.554932 166.738266,308.044800 
	C158.168228,293.917755 150.279404,280.826080 142.290039,267.795990 
	C139.820251,263.768005 138.915924,263.941864 136.519531,267.947083 
	C129.915726,278.984314 123.346657,290.046753 116.489838,300.926575 
	C111.619560,308.654327 111.421005,308.529205 121.183212,309.295441 
	C117.213905,316.001526 113.455994,322.538849 109.511169,328.961426 
	C105.675308,335.206604 105.973831,336.144379 113.215614,337.717499 
	C112.084419,339.725952 111.021622,341.683167 109.893997,343.602325 
	C105.973709,350.274384 102.022629,356.928375 98.100487,363.599335 
	C96.313103,366.639404 96.994781,368.091217 100.736061,368.067902 
	C102.482918,368.057037 104.234352,368.779846 105.979706,370.001953 
M306.002136,404.537109 
	C306.002136,402.097992 306.002136,399.658905 306.002136,396.990173 
	C315.302917,396.990173 324.100067,397.083893 332.892700,396.926697 
	C335.198181,396.885498 337.489777,396.065979 340.241150,395.512695 
	C334.787933,386.002167 329.796600,377.297211 324.399445,367.884430 
	C328.129150,367.884430 331.016327,367.884430 335.429626,367.884430 
	C329.263977,357.059784 323.660980,347.222961 317.963684,337.220520 
	C324.166168,336.797119 325.574615,335.591461 323.815033,332.450684 
	C322.245850,329.649780 320.374329,327.019775 318.758057,324.243408 
	C315.964996,319.445679 313.266327,314.593048 310.248505,309.270416 
	C313.387085,309.070374 315.637695,308.926910 318.885529,308.719910 
	C316.717407,304.678528 315.008240,301.094177 312.947021,297.725220 
	C306.722107,287.550964 300.301208,277.496490 294.098602,267.308899 
	C292.746796,265.088593 291.657562,263.629425 289.833801,266.607513 
	C281.526947,280.172272 273.292603,293.781433 264.509125,308.235291 
	C267.689636,308.675903 270.268890,309.033234 273.329773,309.457245 
	C270.649200,314.134552 268.029419,318.537445 265.614502,323.049957 
	C265.078491,324.051514 264.736511,325.718903 265.204315,326.605072 
	C268.426208,332.708435 271.747833,338.769287 275.302673,344.684387 
	C280.855621,353.924408 279.404663,357.370728 268.625458,358.451416 
	C269.230988,360.013489 269.622284,361.522888 270.358429,362.839447 
	C274.670044,370.550537 278.986725,378.260742 283.447815,385.885773 
	C288.240295,394.077209 284.364838,396.429260 277.998047,398.604126 
	C277.998047,403.694763 278.072021,408.850098 277.966797,414.001709 
	C277.914307,416.570160 278.513611,418.010834 281.508575,418.064240 
	C287.746918,418.175415 293.985779,418.907471 300.212708,418.785675 
	C304.479706,418.702179 307.117737,416.493378 306.028687,411.489838 
	C305.614197,409.585419 305.987793,407.509430 306.002136,404.537109 
M53.330154,99.974365 
	C51.664391,100.263710 49.998627,100.553047 47.783413,100.937820 
	C55.566845,107.369690 158.622803,107.879250 173.352707,101.414009 
	C169.477875,100.412338 166.856491,99.272598 164.178970,99.120384 
	C150.653137,98.351425 137.115311,97.423599 123.576706,97.337746 
	C104.649689,97.217712 85.716637,97.717415 66.790009,98.128914 
	C62.558830,98.220901 58.343613,99.047043 53.330154,99.974365 
M107.506470,92.145973 
	C107.378937,93.332619 107.251404,94.519264 107.123550,95.708847 
	C109.373779,95.708847 111.105560,95.708847 112.834450,95.708847 
	C113.300064,91.568939 111.844284,90.094902 107.506470,92.145973 
z"/>
<path fill="#010101" opacity="1.000000" stroke="none" 
	d="
M254.664246,316.333069 
	C261.638397,328.489594 268.378326,340.340546 275.104645,352.167572 
	C271.691711,357.393219 266.346985,353.696594 261.725403,355.571655 
	C265.501099,362.229156 269.233978,368.898804 273.054840,375.517670 
	C275.633209,379.984161 278.389923,384.347809 280.965057,388.816132 
	C282.967529,392.290894 282.046082,393.920380 277.917450,393.949860 
	C265.758606,394.036713 253.598831,393.993195 241.439423,394.000427 
	C239.800766,394.001404 238.162109,394.000580 236.001602,394.000580 
	C236.001602,401.334015 236.010803,408.432678 235.999069,415.531372 
	C235.986588,423.083954 235.064011,424.002502 227.573212,424.001587 
	C219.577866,424.000610 211.580444,423.891113 203.588043,424.043854 
	C199.578461,424.120453 197.860550,422.550903 197.959061,418.490692 
	C198.116592,411.998138 197.944473,405.498230 198.022141,399.002777 
	C198.065369,395.388458 196.775742,393.806885 192.835693,393.880524 
	C180.513916,394.110840 168.185242,394.030579 155.860092,393.946350 
	C154.354614,393.936066 151.764191,393.436005 151.583603,392.696930 
	C151.231674,391.256805 151.911331,389.304871 152.721008,387.882019 
	C158.824036,377.157318 165.062653,366.509766 171.518814,355.390442 
	C166.598526,355.002594 162.327133,354.665894 156.723480,354.224182 
	C165.181046,339.425415 172.962326,325.809998 181.150604,311.482422 
	C178.003708,311.217255 175.308762,310.990173 172.350937,310.740906 
	C170.756012,306.359070 174.346588,303.677887 176.071198,300.512024 
	C180.977081,291.506287 186.135757,282.638214 191.476532,273.219299 
	C187.230362,273.009827 183.634598,272.832458 178.993454,272.603485 
	C185.427612,261.802917 191.070129,252.269562 196.774597,242.773407 
	C202.155807,233.815369 207.674332,224.939087 212.986633,215.940750 
	C215.314590,211.997482 217.476364,211.753647 219.948929,215.800522 
	C225.824173,225.416626 231.511307,235.147446 237.338257,244.793365 
	C241.583252,251.820526 246.018524,258.734222 250.174072,265.812958 
	C251.325180,267.773804 251.779953,270.143433 252.870972,273.218262 
	C248.745392,273.218262 245.709976,273.218262 241.519241,273.218262 
	C245.599350,280.514771 249.118301,286.867126 252.696548,293.185852 
	C255.078888,297.392822 257.674469,301.483643 259.937500,305.752136 
	C262.054749,309.745636 261.239685,310.887115 256.603333,310.996399 
	C255.141312,311.030884 253.677780,311.001770 251.357880,311.001770 
	C252.641830,313.102173 253.535919,314.564850 254.664246,316.333069 
z"/>
<path fill="#050505" opacity="1.000000" stroke="none" 
	d="
M231.529312,156.695465 
	C215.181259,166.071899 199.716141,158.594772 192.580582,145.132309 
	C179.680237,144.346817 178.333328,144.726974 173.242203,156.480179 
	C170.852554,161.996841 169.543793,168.261978 169.127151,174.283569 
	C168.581406,182.170822 169.594727,190.153824 169.546341,198.093246 
	C169.525192,201.563095 168.545425,205.376862 164.247894,205.835953 
	C160.158096,206.272842 158.198578,202.932938 158.256119,199.644287 
	C158.489441,186.307510 156.090149,172.707916 160.240829,159.722137 
	C162.321518,153.212479 166.086700,147.164612 169.615707,141.219940 
	C172.209702,136.850327 172.590164,137.076187 171.793564,132.132263 
	C154.382065,132.132263 136.939392,132.132263 119.047073,132.132263 
	C119.047073,134.603485 119.047073,137.006592 119.047073,139.659637 
	C112.535339,139.659637 106.472084,139.659637 100.412811,139.659637 
	C100.249825,132.799576 95.228043,126.996719 97.073700,120.042313 
	C98.128197,116.069031 98.526703,109.286667 100.583542,108.720474 
	C106.207100,107.172470 112.564064,108.116791 118.588181,108.601311 
	C118.970261,108.632050 118.989601,113.172905 119.175186,115.583130 
	C125.906006,115.583130 132.494263,115.538208 139.081604,115.597427 
	C144.298676,115.644318 149.514923,115.926117 154.730972,115.910751 
	C161.863571,115.889748 168.995667,115.688492 176.127899,115.559555 
	C180.908661,115.473129 185.951935,114.386574 190.396454,115.564133 
	C194.894409,116.755844 197.763000,115.232254 200.566437,112.798958 
	C210.108353,104.516884 224.956665,105.437271 232.754700,112.224640 
	C237.771622,116.591324 243.313873,115.994591 248.936188,115.971107 
	C254.365280,115.948433 259.794586,115.210915 265.220093,115.253891 
	C275.820679,115.337875 286.418030,115.775040 297.018005,116.007187 
	C301.024384,116.094933 305.041748,115.869507 309.040131,116.068222 
	C312.098938,116.220238 313.484131,115.083565 313.024353,112.045319 
	C312.399445,107.916161 314.338654,106.638069 318.156677,107.069183 
	C319.801788,107.254944 321.484741,107.103416 323.150513,107.108543 
	C330.431763,107.130943 329.106689,107.834656 332.413971,114.066299 
	C334.892853,118.737022 334.689178,122.850632 334.864441,127.331192 
	C334.931976,129.057755 336.290649,131.654648 332.580078,132.364548 
	C331.858704,132.502563 331.950104,136.888916 331.628326,139.643112 
	C325.671356,139.643112 319.613159,139.643112 313.105743,139.643112 
	C313.105743,137.122177 313.105743,134.720367 313.105743,132.130264 
	C295.893005,132.130264 279.124359,132.130264 262.392303,132.130264 
	C260.714050,135.989029 262.246490,138.553757 264.771149,141.600845 
	C271.912262,150.219650 275.767059,160.313889 275.878021,171.632828 
	C275.962952,180.294403 275.910461,188.957413 275.892853,197.619751 
	C275.890167,198.943085 276.266968,200.805756 275.564911,201.484299 
	C273.735565,203.252335 271.479980,205.411591 269.243561,205.597198 
	C268.008942,205.699646 265.383209,202.210480 265.261780,200.225555 
	C264.791504,192.539154 265.016022,184.806015 265.092529,177.091385 
	C265.202667,165.987076 262.744690,155.809677 255.218552,147.191116 
	C252.486099,144.062057 242.872711,143.959503 240.239090,147.175049 
	C237.592606,150.406250 234.663742,153.406143 231.529312,156.695465 
z"/>
<path fill="#010101" opacity="1.000000" stroke="none" 
	d="
M105.981705,369.586029 
	C104.234352,368.779846 102.482918,368.057037 100.736061,368.067902 
	C96.994781,368.091217 96.313103,366.639404 98.100487,363.599335 
	C102.022629,356.928375 105.973709,350.274384 109.893997,343.602325 
	C111.021622,341.683167 112.084419,339.725952 113.215614,337.717499 
	C105.973831,336.144379 105.675308,335.206604 109.511169,328.961426 
	C113.455994,322.538849 117.213905,316.001526 121.183212,309.295441 
	C111.421005,308.529205 111.619560,308.654327 116.489838,300.926575 
	C123.346657,290.046753 129.915726,278.984314 136.519531,267.947083 
	C138.915924,263.941864 139.820251,263.768005 142.290039,267.795990 
	C150.279404,280.826080 158.168228,293.917755 166.738266,308.044800 
	C163.581284,308.554932 161.042923,308.965088 158.010025,309.455170 
	C160.419983,313.535278 162.699875,317.755859 165.335495,321.741180 
	C167.379929,324.832550 167.465424,327.709198 165.664505,330.829041 
	C162.523621,336.270142 159.527924,341.798218 156.263535,347.163391 
	C154.806000,349.558929 153.318130,351.365417 154.811066,354.647705 
	C156.499924,358.360779 159.190582,358.028076 162.145538,358.008545 
	C162.627518,358.005371 163.110260,358.117950 164.285721,358.261963 
	C163.766220,359.852386 163.523102,361.369446 162.818802,362.628479 
	C157.943695,371.343506 152.998016,380.019470 148.018173,388.675293 
	C146.329254,391.610901 147.021866,394.336700 149.551910,395.877960 
	C153.799561,398.465607 153.645386,402.015198 153.069550,406.093903 
	C152.746750,408.380280 152.831406,410.764679 153.042496,413.076569 
	C153.366699,416.627289 152.302124,418.264038 148.375854,418.076660 
	C142.400162,417.791473 136.393341,417.820557 130.414322,418.068268 
	C126.761543,418.219604 125.815048,416.719269 125.946121,413.360199 
	C126.152451,408.072479 126.000946,402.770782 126.000946,397.310120 
	C114.527359,396.022186 103.111885,398.470093 91.075554,395.515961 
	C96.280754,386.605316 101.130234,378.303619 105.981705,369.586029 
z"/>
<path fill="#010101" opacity="1.000000" stroke="none" 
	d="
M306.002167,405.024384 
	C305.987793,407.509430 305.614197,409.585419 306.028687,411.489838 
	C307.117737,416.493378 304.479706,418.702179 300.212708,418.785675 
	C293.985779,418.907471 287.746918,418.175415 281.508575,418.064240 
	C278.513611,418.010834 277.914307,416.570160 277.966797,414.001709 
	C278.072021,408.850098 277.998047,403.694763 277.998047,398.604126 
	C284.364838,396.429260 288.240295,394.077209 283.447815,385.885773 
	C278.986725,378.260742 274.670044,370.550537 270.358429,362.839447 
	C269.622284,361.522888 269.230988,360.013489 268.625458,358.451416 
	C279.404663,357.370728 280.855621,353.924408 275.302673,344.684387 
	C271.747833,338.769287 268.426208,332.708435 265.204315,326.605072 
	C264.736511,325.718903 265.078491,324.051514 265.614502,323.049957 
	C268.029419,318.537445 270.649200,314.134552 273.329773,309.457245 
	C270.268890,309.033234 267.689636,308.675903 264.509125,308.235291 
	C273.292603,293.781433 281.526947,280.172272 289.833801,266.607513 
	C291.657562,263.629425 292.746796,265.088593 294.098602,267.308899 
	C300.301208,277.496490 306.722107,287.550964 312.947021,297.725220 
	C315.008240,301.094177 316.717407,304.678528 318.885529,308.719910 
	C315.637695,308.926910 313.387085,309.070374 310.248505,309.270416 
	C313.266327,314.593048 315.964996,319.445679 318.758057,324.243408 
	C320.374329,327.019775 322.245850,329.649780 323.815033,332.450684 
	C325.574615,335.591461 324.166168,336.797119 317.963684,337.220520 
	C323.660980,347.222961 329.263977,357.059784 335.429626,367.884430 
	C331.016327,367.884430 328.129150,367.884430 324.399445,367.884430 
	C329.796600,377.297211 334.787933,386.002167 340.241150,395.512695 
	C337.489777,396.065979 335.198181,396.885498 332.892700,396.926697 
	C324.100067,397.083893 315.302917,396.990173 306.002136,396.990173 
	C306.002136,399.658905 306.002136,402.097992 306.002167,405.024384 
z"/>
<path fill="#0E0D0F" opacity="1.000000" stroke="none" 
	d="
M53.725601,99.754776 
	C58.343613,99.047043 62.558830,98.220901 66.790009,98.128914 
	C85.716637,97.717415 104.649689,97.217712 123.576706,97.337746 
	C137.115311,97.423599 150.653137,98.351425 164.178970,99.120384 
	C166.856491,99.272598 169.477875,100.412338 173.352707,101.414009 
	C158.622803,107.879250 55.566845,107.369690 47.783413,100.937820 
	C49.998627,100.553047 51.664391,100.263710 53.725601,99.754776 
z"/>
<path fill="#020102" opacity="1.000000" stroke="none" 
	d="
M370.962402,104.760239 
	C366.955627,104.829216 362.948853,104.898193 358.234589,104.735573 
	C355.339081,104.924187 353.151062,105.344391 350.963043,105.764603 
	C332.630127,105.801872 314.297241,105.839142 295.411530,105.462875 
	C292.898346,105.060272 290.937958,105.071220 288.977570,105.082169 
	C285.631714,105.020157 282.285858,104.958145 278.408264,104.492279 
	C276.251953,104.055283 274.627350,104.022148 273.002747,103.989014 
	C270.968872,103.953110 268.935028,103.917191 266.420929,103.519089 
	C265.306305,102.181236 264.671906,101.205559 264.037506,100.229889 
	C264.772705,100.165970 265.507935,100.102051 266.791779,100.237961 
	C268.237640,100.024864 269.134888,99.611938 270.032104,99.199005 
	C272.058533,99.141327 274.084930,99.083641 276.689453,99.206581 
	C277.857910,99.007935 278.448273,98.628662 279.038605,98.249390 
	C287.381989,98.185654 295.725342,98.121910 304.807770,98.327438 
	C308.378540,98.154716 311.210266,97.712715 314.041992,97.270721 
	C314.469147,97.214607 314.896332,97.158493 315.760132,97.542099 
	C324.461243,98.000816 332.725769,98.019806 340.990265,98.038803 
	C352.969849,98.373955 364.950653,98.673714 376.927673,99.083466 
	C378.668152,99.143013 380.390656,99.728775 382.534668,100.480469 
	C382.954437,101.526909 382.960968,102.163910 382.967499,102.800919 
	C379.938538,103.185829 376.909607,103.570747 373.291809,103.745819 
	C372.122772,103.944069 371.542603,104.352158 370.962402,104.760239 
z"/>
<path fill="#242124" opacity="1.000000" stroke="none" 
	d="
M340.758575,97.676620 
	C332.725769,98.019806 324.461243,98.000816 316.079865,97.605858 
	C318.096558,97.114174 320.230133,96.998451 321.450104,96.932281 
	C321.099915,95.399582 320.744263,93.842949 320.388611,92.286316 
	C321.840485,91.957436 323.292358,91.628563 324.744232,91.299683 
	C325.070038,92.988319 325.395844,94.676956 325.904724,97.314445 
	C329.883636,97.314445 335.205261,97.314445 340.758575,97.676620 
z"/>
<path fill="#171319" opacity="1.000000" stroke="none" 
	d="
M107.776123,91.818329 
	C111.844284,90.094902 113.300064,91.568939 112.834450,95.708847 
	C111.105560,95.708847 109.373779,95.708847 107.123550,95.708847 
	C107.251404,94.519264 107.378937,93.332619 107.776123,91.818329 
z"/>
<path fill="#242124" opacity="1.000000" stroke="none" 
	d="
M313.606262,97.201195 
	C311.210266,97.712715 308.378540,98.154716 305.276489,98.308815 
	C307.727631,97.724503 310.449097,97.428085 313.606262,97.201195 
z"/>
<path fill="#242124" opacity="1.000000" stroke="none" 
	d="
M351.374939,105.867462 
	C353.151062,105.344391 355.339081,104.924187 357.776123,104.791687 
	C355.945709,105.376373 353.866241,105.673347 351.374939,105.867462 
z"/>
<path fill="#242124" opacity="1.000000" stroke="none" 
	d="
M289.166077,105.441467 
	C290.937958,105.071220 292.898346,105.060272 294.949707,105.396469 
	C293.145294,105.762657 291.249939,105.781723 289.166077,105.441467 
z"/>
<path fill="#242124" opacity="1.000000" stroke="none" 
	d="
M263.704224,100.158295 
	C264.671906,101.205559 265.306305,102.181236 265.989899,103.455711 
	C264.442322,103.265137 262.845520,102.775757 260.425323,102.034004 
	C261.959229,101.019943 262.665070,100.553314 263.704224,100.158295 
z"/>
<path fill="#242124" opacity="1.000000" stroke="none" 
	d="
M273.196411,104.327286 
	C274.627350,104.022148 276.251953,104.055283 277.957336,104.425148 
	C276.488800,104.729767 274.939453,104.697662 273.196411,104.327286 
z"/>
<path fill="#242124" opacity="1.000000" stroke="none" 
	d="
M269.689331,99.106178 
	C269.134888,99.611938 268.237640,100.024864 267.158447,100.182228 
	C267.766479,99.622231 268.556488,99.317795 269.689331,99.106178 
z"/>
<path fill="#242124" opacity="1.000000" stroke="none" 
	d="
M383.302307,102.883942 
	C382.960968,102.163910 382.954437,101.526909 382.952759,100.571091 
	C383.184082,101.157173 383.410614,102.062065 383.302307,102.883942 
z"/>
<path fill="#242124" opacity="1.000000" stroke="none" 
	d="
M278.734222,98.149467 
	C278.448273,98.628662 277.857910,99.007935 277.121338,99.154121 
	C277.460022,98.630539 277.944916,98.340042 278.734222,98.149467 
z"/>
<path fill="#242124" opacity="1.000000" stroke="none" 
	d="
M371.265137,104.843185 
	C371.542603,104.352158 372.122772,103.944069 372.850891,103.766037 
	C372.521851,104.306107 372.044830,104.616112 371.265137,104.843185 
z"/>
</svg>